v  -0.50 -0.50 0.00
v  -0.50 0.50 0.00
v  0.50 0.50 0.00
v  0.50 -0.50 0.00
v  -0.50 -0.50 1.00
v  0.50 -0.50 1.00
v  0.50 0.50 1.00
v  -0.50 0.50 1.00

vn 0.00 0.00 -1.00
vn 0.00 0.00 1.00
vn 0.00 -1.00 0.00
vn 1.00 0.00 0.00
vn 0.00 1.00 0.00
vn -1.00 0.00 0.00

vt 1.00 0.00 0.00
vt 1.00 1.00 0.00
vt 0.00 1.00 0.00
vt 0.00 0.00 0.00

g Crate

f 1/1/1 2/2/1 3/3/1
f 3/3/1 4/4/1 1/1/1
f 5/4/2 6/1/2 7/2/2
f 7/2/2 8/3/2 5/4/2
f 1/4/3 4/1/3 6/2/3
f 6/2/3 5/3/3 1/4/3
f 4/4/4 3/1/4 7/2/4
f 7/2/4 6/3/4 4/4/4
f 3/4/5 2/1/5 8/2/5
f 8/2/5 7/3/5 3/4/5
f 2/4/6 1/1/6 5/2/6
f 5/2/6 8/3/6 2/4/6
